<svg width="179" height="48" viewBox="0 0 179 48" fill="none" xmlns="http://www.w3.org/2000/svg">
<g opacity="0.75">
<path d="M55.8216 39.3372C55.8216 38.7579 55.9973 38.3023 56.3487 37.9706C56.7051 37.6388 57.1159 37.4729 57.5812 37.4729C57.8436 37.4729 58.0787 37.515 58.2866 37.5992C58.4945 37.6784 58.6603 37.7873 58.784 37.926C58.9127 38.0646 59.0192 38.2231 59.1033 38.4013C59.1874 38.5796 59.232 38.7653 59.2369 38.9584C59.2468 39.1466 59.2369 39.3372 59.2072 39.5303H56.2448C56.2695 39.9562 56.4329 40.278 56.7348 40.4959C57.0367 40.7088 57.4055 40.8153 57.8411 40.8153C58.2866 40.8153 58.6751 40.7187 59.0068 40.5256V40.9415C58.685 41.1148 58.2767 41.2015 57.7817 41.2015C57.2224 41.2015 56.7546 41.043 56.3784 40.7261C56.0072 40.4092 55.8216 39.9463 55.8216 39.3372ZM58.836 39.1589C58.8707 38.847 58.7865 38.5524 58.5836 38.2751C58.3856 37.9978 58.0614 37.8591 57.6109 37.8591C57.2446 37.8591 56.9303 37.9755 56.668 38.2082C56.4056 38.436 56.2646 38.7529 56.2448 39.1589H58.836Z" fill="white"/>
<path d="M61.9402 42.1077H61.5318V40.741H61.9996C62.2273 40.3053 62.3931 39.8398 62.497 39.3446C62.601 38.8445 62.6505 38.2478 62.6455 37.5546H65.1922V40.741H65.7119V42.1077H65.2962V41.1198H61.9402V42.1077ZM63.0465 37.9334C63.0316 39.003 62.8336 39.9388 62.4525 40.741H64.7764V37.9334H63.0465Z" fill="white"/>
<path d="M68.7566 41.1198H68.3928V37.5546H68.816V40.4439L71.2291 37.5546H71.5929V41.1198H71.1771V38.2305L68.7566 41.1198Z" fill="white"/>
<path d="M75.0299 41.1198H74.6067V37.5546H75.0299V39.1441H77.3464V37.5546H77.7622V41.1198H77.3464V39.5303H75.0299V41.1198Z" fill="white"/>
<path d="M83.5762 40.4736C83.5762 40.6816 83.6826 40.7856 83.8954 40.7856C83.9746 40.7856 84.0662 40.7682 84.1701 40.7336V41.0752C84.0365 41.1248 83.9078 41.1495 83.7841 41.1495C83.4079 41.1495 83.2024 40.9663 83.1678 40.5999C82.7966 41.001 82.309 41.2015 81.7051 41.2015C81.3636 41.2015 81.0715 41.1124 80.829 40.9341C80.5865 40.7509 80.4652 40.4885 80.4652 40.1468C80.4652 39.7408 80.6186 39.4461 80.9255 39.2629C81.2324 39.0748 81.6037 38.9807 82.0392 38.9807C82.4204 38.9807 82.7941 39.0327 83.1604 39.1367V38.899C83.1604 38.5821 83.0614 38.3295 82.8634 38.1414C82.6654 37.9532 82.3857 37.8591 82.0244 37.8591C81.569 37.8591 81.1433 37.9433 80.7473 38.1117V37.6957C81.1681 37.5472 81.6086 37.4729 82.0689 37.4729C82.5441 37.4729 82.9129 37.6017 83.1752 37.8591C83.4425 38.1166 83.5762 38.4806 83.5762 38.951V40.4736ZM80.8958 40.1245C80.8958 40.3572 80.9825 40.5355 81.1557 40.6593C81.3289 40.7781 81.5393 40.8376 81.7868 40.8376C82.059 40.8376 82.3164 40.7781 82.559 40.6593C82.8015 40.5355 83.002 40.3622 83.1604 40.1394V39.4858C82.7842 39.3867 82.4303 39.3372 82.0986 39.3372C81.762 39.3372 81.4774 39.4016 81.2448 39.5303C81.0121 39.6541 80.8958 39.8522 80.8958 40.1245Z" fill="white"/>
<path d="M86.8497 41.1198H86.3523L87.414 39.7531C87.1319 39.6838 86.9116 39.5526 86.7532 39.3595C86.5948 39.1664 86.5156 38.9386 86.5156 38.6762C86.5156 38.3543 86.6344 38.0869 86.872 37.874C87.1096 37.6611 87.4338 37.5546 87.8446 37.5546H89.5449V41.1198H89.1217V39.7977H87.8669L86.8497 41.1198ZM87.1838 38.134C87.0205 38.2677 86.9388 38.4484 86.9388 38.6762C86.9388 38.9039 87.023 39.0847 87.1913 39.2184C87.3596 39.3521 87.5897 39.4189 87.8818 39.4189H89.1291V37.9334H87.8818C87.5848 37.9334 87.3521 38.0003 87.1838 38.134Z" fill="white"/>
<path d="M99.7677 39.4486C99.7677 39.9834 99.6019 40.4092 99.2702 40.7261C98.9386 41.043 98.503 41.2015 97.9635 41.2015C97.414 41.2015 96.9685 41.0158 96.627 40.6444C96.2904 40.2731 96.1221 39.773 96.1221 39.1441C96.1221 38.5796 96.2236 38.0869 96.4265 37.666C96.6344 37.2402 96.9042 36.9233 97.2358 36.7153C97.518 36.542 97.81 36.4157 98.112 36.3365C98.4188 36.2573 98.6812 36.1904 98.899 36.136C99.1168 36.0765 99.295 35.9775 99.4336 35.8389V36.2845C99.295 36.3935 99.1242 36.4752 98.9213 36.5296C98.7233 36.5791 98.4931 36.6386 98.2308 36.7079C97.9734 36.7772 97.7234 36.8837 97.4809 37.0273C97.0205 37.3095 96.7087 37.8195 96.5453 38.5573C96.679 38.2949 96.8795 38.0869 97.1467 37.9334C97.414 37.7799 97.7061 37.7032 98.0229 37.7032C98.5129 37.7032 98.9262 37.8666 99.2628 38.1934C99.5994 38.5152 99.7677 38.9336 99.7677 39.4486ZM96.5453 39.3595C96.5453 39.7754 96.674 40.1196 96.9314 40.3919C97.1938 40.6642 97.5353 40.8004 97.956 40.8004C98.3817 40.8004 98.7208 40.6766 98.9732 40.429C99.2257 40.1765 99.3519 39.8522 99.3519 39.456C99.3519 39.0599 99.2257 38.7356 98.9732 38.483C98.7208 38.2305 98.3867 38.1042 97.9709 38.1042C97.5947 38.1042 97.273 38.2231 97.0057 38.4608C96.7384 38.6935 96.5849 38.9931 96.5453 39.3595Z" fill="white"/>
<path d="M102.291 39.3372C102.291 38.7579 102.467 38.3023 102.819 37.9706C103.175 37.6388 103.586 37.4729 104.051 37.4729C104.313 37.4729 104.549 37.515 104.756 37.5992C104.964 37.6784 105.13 37.7873 105.254 37.926C105.383 38.0646 105.489 38.2231 105.573 38.4013C105.657 38.5796 105.702 38.7653 105.707 38.9584C105.717 39.1466 105.707 39.3372 105.677 39.5303H102.715C102.739 39.9562 102.903 40.278 103.205 40.4959C103.507 40.7088 103.875 40.8153 104.311 40.8153C104.756 40.8153 105.145 40.7187 105.477 40.5256V40.9415C105.155 41.1148 104.747 41.2015 104.252 41.2015C103.692 41.2015 103.224 41.043 102.848 40.7261C102.477 40.4092 102.291 39.9463 102.291 39.3372ZM105.306 39.1589C105.341 38.847 105.256 38.5524 105.053 38.2751C104.855 37.9978 104.531 37.8591 104.081 37.8591C103.715 37.8591 103.4 37.9755 103.138 38.2082C102.876 38.436 102.734 38.7529 102.715 39.1589H105.306Z" fill="white"/>
<path d="M111.007 40.1691C111.007 40.5058 110.866 40.7633 110.584 40.9415C110.302 41.1148 109.926 41.2015 109.456 41.2015C108.961 41.2015 108.53 41.1124 108.164 40.9341V40.533C108.525 40.7212 108.941 40.8153 109.411 40.8153C110.193 40.8153 110.584 40.585 110.584 40.1245C110.584 39.9066 110.5 39.7482 110.332 39.6492C110.163 39.5501 109.968 39.5006 109.745 39.5006H108.914V39.1144H109.745C110.255 39.0896 110.51 38.8965 110.51 38.535C110.51 38.3122 110.408 38.1439 110.205 38.03C110.007 37.9161 109.748 37.8591 109.426 37.8591C109 37.8591 108.597 37.9483 108.216 38.1265V37.7329C108.622 37.5546 109.04 37.4655 109.47 37.4655C109.926 37.4655 110.282 37.5571 110.54 37.7403C110.802 37.9186 110.933 38.1661 110.933 38.483C110.933 38.696 110.871 38.8742 110.747 39.0178C110.629 39.1565 110.463 39.2481 110.25 39.2926C110.463 39.3471 110.641 39.4511 110.785 39.6046C110.933 39.7581 111.007 39.9463 111.007 40.1691Z" fill="white"/>
<path d="M114.101 40.7039C113.735 40.3671 113.552 39.9116 113.552 39.3372C113.552 38.7628 113.735 38.3097 114.101 37.978C114.472 37.6413 114.913 37.4729 115.423 37.4729C115.938 37.4729 116.378 37.6413 116.744 37.978C117.116 38.3097 117.301 38.7628 117.301 39.3372C117.301 39.9116 117.116 40.3671 116.744 40.7039C116.378 41.0356 115.938 41.2015 115.423 41.2015C114.913 41.2015 114.472 41.0356 114.101 40.7039ZM116.462 40.4068C116.739 40.1443 116.878 39.7878 116.878 39.3372C116.878 38.8866 116.739 38.5301 116.462 38.2677C116.185 38.0052 115.841 37.874 115.43 37.874C115.019 37.874 114.673 38.0052 114.391 38.2677C114.114 38.5301 113.975 38.8866 113.975 39.3372C113.975 39.7878 114.114 40.1443 114.391 40.4068C114.673 40.6692 115.019 40.8004 115.43 40.8004C115.841 40.8004 116.185 40.6692 116.462 40.4068Z" fill="white"/>
<path d="M120.492 41.1198H120.069V37.5546H123.224V41.1198H122.808V37.9483H120.492V41.1198Z" fill="white"/>
<path d="M129.038 40.4736C129.038 40.6816 129.145 40.7856 129.357 40.7856C129.437 40.7856 129.528 40.7682 129.632 40.7336V41.0752C129.499 41.1248 129.37 41.1495 129.246 41.1495C128.87 41.1495 128.664 40.9663 128.63 40.5999C128.259 41.001 127.771 41.2015 127.167 41.2015C126.826 41.2015 126.534 41.1124 126.291 40.9341C126.049 40.7509 125.927 40.4885 125.927 40.1468C125.927 39.7408 126.081 39.4461 126.388 39.2629C126.694 39.0748 127.066 38.9807 127.501 38.9807C127.882 38.9807 128.256 39.0327 128.622 39.1367V38.899C128.622 38.5821 128.523 38.3295 128.325 38.1414C128.127 37.9532 127.848 37.8591 127.486 37.8591C127.031 37.8591 126.605 37.9433 126.209 38.1117V37.6957C126.63 37.5472 127.071 37.4729 127.531 37.4729C128.006 37.4729 128.375 37.6017 128.637 37.8591C128.905 38.1166 129.038 38.4806 129.038 38.951V40.4736ZM126.358 40.1245C126.358 40.3572 126.444 40.5355 126.618 40.6593C126.791 40.7781 127.001 40.8376 127.249 40.8376C127.521 40.8376 127.778 40.7781 128.021 40.6593C128.264 40.5355 128.464 40.3622 128.622 40.1394V39.4858C128.246 39.3867 127.892 39.3372 127.561 39.3372C127.224 39.3372 126.939 39.4016 126.707 39.5303C126.474 39.6541 126.358 39.8522 126.358 40.1245Z" fill="white"/>
<path d="M131.903 39.3595C131.903 38.9436 132 38.5895 132.193 38.2974C132.391 38.0003 132.631 37.7898 132.913 37.666C133.195 37.5373 133.5 37.4729 133.826 37.4729C134.262 37.4729 134.621 37.5695 134.903 37.7626V38.1711C134.626 37.9631 134.284 37.8591 133.878 37.8591C133.453 37.8591 133.086 37.9854 132.78 38.2379C132.478 38.4905 132.327 38.8618 132.327 39.3521C132.327 39.8225 132.473 40.1839 132.765 40.4365C133.062 40.689 133.418 40.8153 133.834 40.8153C134.245 40.8153 134.613 40.7187 134.94 40.5256V40.949C134.604 41.1173 134.215 41.2015 133.774 41.2015C133.27 41.2015 132.831 41.043 132.46 40.7261C132.089 40.4092 131.903 39.9537 131.903 39.3595Z" fill="white"/>
<path d="M138.126 41.1198H137.702V37.5546H138.126V39.1441H140.442V37.5546H140.858V41.1198H140.442V39.5303H138.126V41.1198Z" fill="white"/>
<path d="M146.672 40.4736C146.672 40.6816 146.778 40.7856 146.991 40.7856C147.07 40.7856 147.162 40.7682 147.266 40.7336V41.0752C147.132 41.1248 147.004 41.1495 146.88 41.1495C146.504 41.1495 146.298 40.9663 146.264 40.5999C145.892 41.001 145.405 41.2015 144.801 41.2015C144.459 41.2015 144.167 41.1124 143.925 40.9341C143.682 40.7509 143.561 40.4885 143.561 40.1468C143.561 39.7408 143.714 39.4461 144.021 39.2629C144.328 39.0748 144.699 38.9807 145.135 38.9807C145.516 38.9807 145.89 39.0327 146.256 39.1367V38.899C146.256 38.5821 146.157 38.3295 145.959 38.1414C145.761 37.9532 145.482 37.8591 145.12 37.8591C144.665 37.8591 144.239 37.9433 143.843 38.1117V37.6957C144.264 37.5472 144.704 37.4729 145.165 37.4729C145.64 37.4729 146.009 37.6017 146.271 37.8591C146.538 38.1166 146.672 38.4806 146.672 38.951V40.4736ZM143.992 40.1245C143.992 40.3572 144.078 40.5355 144.252 40.6593C144.425 40.7781 144.635 40.8376 144.883 40.8376C145.155 40.8376 145.412 40.7781 145.655 40.6593C145.897 40.5355 146.098 40.3622 146.256 40.1394V39.4858C145.88 39.3867 145.526 39.3372 145.194 39.3372C144.858 39.3372 144.573 39.4016 144.341 39.5303C144.108 39.6541 143.992 39.8522 143.992 40.1245Z" fill="white"/>
<path d="M149.946 41.1198H149.448L150.51 39.7531C150.228 39.6838 150.007 39.5526 149.849 39.3595C149.691 39.1664 149.611 38.9386 149.611 38.6762C149.611 38.3543 149.73 38.0869 149.968 37.874C150.205 37.6611 150.53 37.5546 150.94 37.5546H152.641V41.1198H152.217V39.7977H150.963L149.946 41.1198ZM150.28 38.134C150.116 38.2677 150.035 38.4484 150.035 38.6762C150.035 38.9039 150.119 39.0847 150.287 39.2184C150.455 39.3521 150.686 39.4189 150.978 39.4189H152.225V37.9334H150.978C150.681 37.9334 150.448 38.0003 150.28 38.134Z" fill="white"/>
<path d="M159.173 39.3595C159.173 38.9436 159.27 38.5895 159.463 38.2974C159.661 38.0003 159.901 37.7898 160.183 37.666C160.465 37.5373 160.77 37.4729 161.096 37.4729C161.532 37.4729 161.891 37.5695 162.173 37.7626V38.1711C161.896 37.9631 161.554 37.8591 161.148 37.8591C160.723 37.8591 160.356 37.9854 160.049 38.2379C159.748 38.4905 159.597 38.8618 159.597 39.3521C159.597 39.8225 159.743 40.1839 160.035 40.4365C160.332 40.689 160.688 40.8153 161.104 40.8153C161.515 40.8153 161.883 40.7187 162.21 40.5256V40.949C161.874 41.1173 161.485 41.2015 161.044 41.2015C160.54 41.2015 160.101 41.043 159.73 40.7261C159.359 40.4092 159.173 39.9537 159.173 39.3595Z" fill="white"/>
<path d="M164.648 39.3372C164.648 38.7579 164.823 38.3023 165.175 37.9706C165.531 37.6388 165.942 37.4729 166.407 37.4729C166.67 37.4729 166.905 37.515 167.113 37.5992C167.321 37.6784 167.486 37.7873 167.61 37.926C167.739 38.0646 167.845 38.2231 167.929 38.4013C168.014 38.5796 168.058 38.7653 168.063 38.9584C168.073 39.1466 168.063 39.3372 168.033 39.5303H165.071C165.096 39.9562 165.259 40.278 165.561 40.4959C165.863 40.7088 166.232 40.8153 166.667 40.8153C167.113 40.8153 167.501 40.7187 167.833 40.5256V40.9415C167.511 41.1148 167.103 41.2015 166.608 41.2015C166.048 41.2015 165.581 41.043 165.205 40.7261C164.833 40.4092 164.648 39.9463 164.648 39.3372ZM167.662 39.1589C167.697 38.847 167.613 38.5524 167.41 38.2751C167.212 37.9978 166.887 37.8591 166.437 37.8591C166.071 37.8591 165.756 37.9755 165.494 38.2082C165.232 38.436 165.091 38.7529 165.071 39.1589H167.662Z" fill="white"/>
<path d="M172.073 41.1198H171.65V37.9483H170.269V37.5546H173.454V37.9483H172.073V41.1198Z" fill="white"/>
<path d="M177.641 41.1198H176.008V37.5546H176.431V38.8544H177.641C178.052 38.8544 178.381 38.9609 178.629 39.1738C178.876 39.3867 179 39.6566 179 39.9834C179 40.3152 178.876 40.5875 178.629 40.8004C178.381 41.0133 178.052 41.1198 177.641 41.1198ZM176.424 39.2332V40.741H177.582C177.889 40.741 178.129 40.6742 178.302 40.5405C178.48 40.4068 178.57 40.2211 178.57 39.9834C178.57 39.7457 178.48 39.5625 178.302 39.4338C178.124 39.3001 177.884 39.2332 177.582 39.2332H176.424Z" fill="white"/>
</g>
<path d="M56.607 24.3449C56.0834 22.8873 55.8216 21.3501 55.8216 19.7331C55.8216 18.1161 56.0834 16.5789 56.607 15.1213C57.1534 13.6638 57.9274 12.3542 58.9291 11.1928C59.9308 10.0085 61.2513 9.07475 62.8904 8.39152C64.5295 7.68552 66.3622 7.33252 68.3884 7.33252C70.4145 7.33252 72.2358 7.68552 73.8522 8.39152C75.4913 9.07475 76.8117 10.0085 77.8134 11.1928C78.8379 12.3542 79.6119 13.6638 80.1356 15.1213C80.6819 16.5789 80.9551 18.1161 80.9551 19.7331C80.9551 21.3501 80.6819 22.8873 80.1356 24.3449C79.6119 25.8024 78.8379 27.1234 77.8134 28.3076C76.8117 29.4691 75.4913 30.4028 73.8522 31.1088C72.2358 31.7921 70.4145 32.1337 68.3884 32.1337C66.3622 32.1337 64.5295 31.7921 62.8904 31.1088C61.2513 30.4028 59.9308 29.4691 58.9291 28.3076C57.9274 27.1234 57.1534 25.8024 56.607 24.3449ZM74.74 25.9505C76.2426 24.2652 76.9939 22.1927 76.9939 19.7331C76.9939 17.2735 76.2426 15.201 74.74 13.5157C73.2603 11.8304 71.143 10.9878 68.3884 10.9878C65.6565 10.9878 63.5392 11.8304 62.0367 13.5157C60.5341 15.201 59.7829 17.2735 59.7829 19.7331C59.7829 22.1927 60.5341 24.2652 62.0367 25.9505C63.5392 27.6358 65.6565 28.4784 68.3884 28.4784C71.143 28.4784 73.2603 27.6358 74.74 25.9505Z" fill="white"/>
<path d="M87.7003 17.5468C89.2029 15.7476 91.1038 14.848 93.4032 14.848C95.4521 14.848 97.0912 15.4743 98.3206 16.7269C99.55 17.9567 100.165 19.5623 100.165 21.5437V31.6896H96.5107V22.0219C96.5107 20.7466 96.1578 19.7787 95.4521 19.1182C94.7464 18.435 93.8243 18.0934 92.686 18.0934C90.8875 18.0934 89.3622 19.0043 88.1101 20.8263V31.6896H84.4562V15.2921H87.7003V17.5468Z" fill="white"/>
<path d="M103.507 23.4909C103.507 22.0789 103.758 20.8035 104.259 19.6648C104.76 18.5033 105.42 17.5923 106.239 16.9319C107.059 16.2486 107.947 15.7362 108.903 15.3946C109.859 15.0302 110.827 14.848 111.806 14.848C113.058 14.848 114.185 15.0416 115.186 15.4288C116.211 15.8159 117.03 16.3397 117.645 17.0002C118.26 17.6606 118.761 18.4236 119.148 19.289C119.535 20.1544 119.74 21.0654 119.762 22.0219C119.785 22.9557 119.705 23.9008 119.523 24.8573H107.196C107.378 26.2465 108.061 27.2942 109.244 28.0002C110.428 28.6834 111.84 29.025 113.479 29.025C115.346 29.025 117.076 28.6378 118.67 27.8635V31.0064C117.099 31.7579 115.141 32.1337 112.796 32.1337C110.132 32.1337 107.913 31.3821 106.137 29.879C104.384 28.3759 103.507 26.2465 103.507 23.4909ZM116.245 22.1244C116.382 21.1907 116.097 20.2569 115.391 19.3232C114.708 18.3666 113.57 17.8884 111.976 17.8884C110.679 17.8884 109.563 18.2642 108.63 19.0157C107.719 19.7673 107.23 20.8035 107.161 22.1244H116.245Z" fill="white"/>
<path d="M127.748 31.6896H123.855V7.77662H127.509L140.383 25.2673C140.36 24.7207 140.349 23.8439 140.349 22.6368V7.77662H144.242V31.6896H140.588L127.714 14.199C127.737 14.7455 127.748 15.611 127.748 16.7952V31.6896Z" fill="white"/>
<path d="M147.994 23.4909C147.994 22.0789 148.245 20.8035 148.746 19.6648C149.246 18.5033 149.907 17.5923 150.726 16.9319C151.546 16.2486 152.434 15.7362 153.39 15.3946C154.346 15.0302 155.314 14.848 156.292 14.848C157.545 14.848 158.672 15.0416 159.673 15.4288C160.698 15.8159 161.517 16.3397 162.132 17.0002C162.747 17.6606 163.247 18.4236 163.634 19.289C164.021 20.1544 164.226 21.0654 164.249 22.0219C164.272 22.9557 164.192 23.9008 164.01 24.8573H151.682C151.865 26.2465 152.548 27.2942 153.731 28.0002C154.915 28.6834 156.327 29.025 157.966 29.025C159.833 29.025 161.563 28.6378 163.156 27.8635V31.0064C161.586 31.7579 159.628 32.1337 157.283 32.1337C154.619 32.1337 152.4 31.3821 150.624 29.879C148.871 28.3759 147.994 26.2465 147.994 23.4909ZM160.732 22.1244C160.868 21.1907 160.584 20.2569 159.878 19.3232C159.195 18.3666 158.057 17.8884 156.463 17.8884C155.166 17.8884 154.05 18.2642 153.117 19.0157C152.206 19.7673 151.717 20.8035 151.648 22.1244H160.732Z" fill="white"/>
<path d="M168.922 10.3387L172.542 9.45053V15.2921H178.484V18.5033H172.542V26.0188C172.542 27.0664 172.781 27.8066 173.259 28.2393C173.76 28.672 174.557 28.8884 175.65 28.8884C176.765 28.8884 177.869 28.672 178.962 28.2393V31.3821C177.642 31.8604 176.173 32.0995 174.557 32.0995C172.872 32.0995 171.506 31.6554 170.459 30.7672C169.435 29.879 168.922 28.524 168.922 26.702V18.5033H165.986V15.2921H168.922V10.3387Z" fill="white"/>
<ellipse cx="23.4026" cy="46.6014" rx="1.39826" ry="1.39877" fill="#FF3E2D"/>
<path fill-rule="evenodd" clip-rule="evenodd" d="M23.4026 42.1108C22.8754 42.1108 22.4481 42.5263 22.0908 42.9139C21.795 43.2348 21.3711 43.4358 20.9004 43.4358C20.4296 43.4358 20.0057 43.2348 19.7099 42.9138C19.3526 42.5263 18.9253 42.1108 18.3982 42.1108C17.8711 42.1108 17.4438 42.5263 17.0865 42.9139C16.7907 43.2349 16.3668 43.4359 15.896 43.4359C15.0018 43.4359 14.2769 42.7108 14.2769 41.8163C14.2769 40.9218 15.0018 40.1966 15.896 40.1966C16.3669 40.1966 16.7909 40.3978 17.0867 40.7188C17.4439 41.1064 17.8711 41.5219 18.3981 41.5219C18.9252 41.5219 19.3525 41.1064 19.7096 40.7188C20.0055 40.3977 20.4294 40.1965 20.9004 40.1965C21.3713 40.1965 21.7953 40.3977 22.0911 40.7188C22.4483 41.1064 22.8755 41.5219 23.4026 41.5219C23.9297 41.5219 24.3569 41.1064 24.714 40.7188C25.0099 40.3977 25.4339 40.1965 25.9048 40.1965C26.3758 40.1965 26.7999 40.3978 27.0957 40.719C27.4527 41.1065 27.8798 41.5219 28.4067 41.5219C28.9337 41.5219 29.3608 41.1065 29.7178 40.719C30.0136 40.3978 30.4377 40.1965 30.9087 40.1965C31.8029 40.1965 32.5277 40.9217 32.5277 41.8162C32.5277 42.7107 31.8029 43.4358 30.9087 43.4358C30.4378 43.4358 30.0139 43.2347 29.7181 42.9137C29.3609 42.5262 28.9337 42.1108 28.4067 42.1108C27.8798 42.1108 27.4526 42.5262 27.0954 42.9137C26.7996 43.2347 26.3757 43.4358 25.9048 43.4358C25.434 43.4358 25.0102 43.2348 24.7143 42.9139C24.357 42.5263 23.9297 42.1108 23.4026 42.1108Z" fill="#FF3E2D"/>
<path fill-rule="evenodd" clip-rule="evenodd" d="M17.8446 35.0884C18.5295 35.5758 19.2138 36.2946 20.0544 36.2946C20.8949 36.2946 21.5791 35.5758 22.2639 35.0884C22.5645 34.8744 22.9323 34.7485 23.3294 34.7485C23.7265 34.7485 24.0942 34.8744 24.3948 35.0884C25.0795 35.5758 25.7638 36.2944 26.6042 36.2943C27.4446 36.2943 28.1287 35.5758 28.8133 35.0884C29.1139 34.8744 29.4817 34.7485 29.8788 34.7485C30.2757 34.7485 30.6432 34.8742 30.9437 35.088C31.6288 35.5753 32.3133 36.2941 33.154 36.2941C33.9946 36.294 34.6789 35.5753 35.3639 35.0881C35.6645 34.8743 36.032 34.7485 36.4289 34.7485C37.445 34.7485 38.2687 35.5726 38.2687 36.589C38.2687 37.6055 37.445 38.4295 36.4289 38.4295C36.0316 38.4295 35.6638 38.3036 35.3631 38.0894C34.6784 37.6018 33.9942 36.883 33.1537 36.883C32.3133 36.8831 31.6292 37.6018 30.9447 38.0893C30.644 38.3035 30.2761 38.4295 29.8788 38.4295C29.4815 38.4295 29.1137 38.3036 28.813 38.0894C28.1284 37.6019 27.4443 36.8833 26.604 36.8833C25.7637 36.8833 25.0797 37.6018 24.3953 38.0893C24.0946 38.3035 23.7267 38.4295 23.3294 38.4295C22.9324 38.4295 22.5647 38.3037 22.2641 38.0898C21.5792 37.6024 20.8948 36.8835 20.0542 36.8836C19.2136 36.8836 18.5294 37.6023 17.8446 38.0897C17.544 38.3037 17.1763 38.4295 16.7792 38.4295C16.3822 38.4295 16.0145 38.3037 15.7139 38.0897C15.0291 37.6024 14.3449 36.8838 13.5045 36.8838C12.6641 36.8839 11.9799 37.6024 11.2953 38.0898C10.9946 38.3038 10.6269 38.4296 10.2298 38.4296C9.21373 38.4296 8.39001 37.6056 8.39001 36.5891C8.39001 35.5727 9.21373 34.7486 10.2298 34.7486C10.6271 34.7486 10.995 34.8746 11.2957 35.0888C11.9802 35.5763 12.6643 36.2949 13.5046 36.2949C14.3449 36.2949 15.0288 35.5763 15.7132 35.0888C16.014 34.8745 16.3819 34.7485 16.7792 34.7485C17.1763 34.7485 17.544 34.8744 17.8446 35.0884Z" fill="#FF3E2D"/>
<path fill-rule="evenodd" clip-rule="evenodd" d="M30.2089 31.288C29.3718 31.288 28.6959 31.9949 28.0503 32.5277C27.7068 32.8111 27.2666 32.9813 26.7867 32.9813C26.3066 32.9813 25.8663 32.811 25.5228 32.5275C24.8774 31.9947 24.2017 31.288 23.3648 31.288C22.5279 31.288 21.8521 31.9947 21.2067 32.5275C20.8633 32.811 20.423 32.9813 19.9429 32.9813C19.4628 32.9813 19.0225 32.811 18.679 32.5275C18.0337 31.9947 17.3579 31.288 16.521 31.288C15.6841 31.288 15.0084 31.9947 14.363 32.5275C14.0195 32.811 13.5792 32.9813 13.0991 32.9813C12.6192 32.9813 12.179 32.8111 11.8356 32.5277C11.1899 31.9949 10.514 31.288 9.67689 31.288C8.83979 31.288 8.16384 31.9949 7.51819 32.5277C7.17477 32.8111 6.73456 32.9814 6.25461 32.9814C5.15722 32.9814 4.26761 32.0914 4.26761 30.9936C4.26761 29.8958 5.15722 29.0059 6.25461 29.0059C6.7345 29.0059 7.17465 29.1761 7.51806 29.4594C8.16376 29.9922 8.83975 30.6991 9.67686 30.6991C10.514 30.6991 11.19 29.9921 11.8357 29.4594C12.1791 29.176 12.6192 29.0059 13.0991 29.0059C13.5792 29.0059 14.0195 29.1761 14.3629 29.4596C15.0083 29.9924 15.6841 30.6991 16.521 30.6991C17.3579 30.6991 18.0337 29.9924 18.6791 29.4596C19.0226 29.1761 19.4629 29.0059 19.9429 29.0059C20.4229 29.0059 20.8632 29.1761 21.2066 29.4596C21.8521 29.9924 22.5279 30.6991 23.3648 30.6991C24.2017 30.6991 24.8775 29.9924 25.5229 29.4596C25.8664 29.1761 26.3067 29.0059 26.7867 29.0059C27.2666 29.0059 27.7068 29.1761 28.0502 29.4594C28.6959 29.9922 29.3718 30.6991 30.2089 30.6991C31.046 30.6991 31.722 29.9922 32.3677 29.4594C32.7111 29.1761 33.1513 29.0059 33.6312 29.0059C34.1111 29.0059 34.5513 29.1761 34.8947 29.4594C35.5403 29.9922 36.2163 30.6991 37.0534 30.6991C37.8904 30.6991 38.5664 29.9922 39.212 29.4594C39.5555 29.1761 39.9956 29.0059 40.4756 29.0059C41.5729 29.0059 42.4626 29.8958 42.4626 30.9936C42.4626 32.0914 41.5729 32.9813 40.4756 32.9813C39.9956 32.9813 39.5554 32.8111 39.2119 32.5277C38.5663 31.9949 37.8904 31.288 37.0534 31.288C36.2163 31.288 35.5404 31.9949 34.8948 32.5277C34.5514 32.8111 34.1111 32.9813 33.6312 32.9813C33.1512 32.9813 32.711 32.8111 32.3676 32.5277C31.722 31.9949 31.046 31.288 30.2089 31.288Z" fill="#FF3E2D"/>
<path fill-rule="evenodd" clip-rule="evenodd" d="M8.79479 25.3255C7.28794 25.3255 5.97206 26.8091 4.50994 27.1735C4.33849 27.2163 4.15911 27.239 3.97444 27.239C2.75512 27.239 1.76666 26.2501 1.76666 25.0304C1.76666 23.8106 2.75512 22.8218 3.97444 22.8218C4.15958 22.8218 4.3394 22.8446 4.51124 22.8875C5.97291 23.2528 7.28832 24.7365 8.79493 24.7365C10.3015 24.7365 11.6169 23.2529 13.0785 22.8876C13.2503 22.8447 13.4301 22.8219 13.6153 22.8219C13.8005 22.8219 13.9805 22.8447 14.1524 22.8877C15.6138 23.2531 16.929 24.7365 18.4353 24.7365C19.9417 24.7365 21.2569 23.2531 22.7183 22.8877C22.8902 22.8447 23.0702 22.8219 23.2554 22.8219C23.4406 22.8219 23.6204 22.8447 23.7922 22.8876C25.2538 23.2529 26.5692 24.7365 28.0757 24.7365C29.5823 24.7365 30.8976 23.2529 32.3592 22.8876C32.5311 22.8447 32.7109 22.8219 32.896 22.8219C33.081 22.8219 33.2606 22.8446 33.4323 22.8875C34.8943 23.2524 36.2101 24.7365 37.717 24.7365C39.2239 24.7365 40.5396 23.2524 42.0017 22.8875C42.1734 22.8446 42.353 22.8219 42.5379 22.8219C43.7572 22.8219 44.7457 23.8107 44.7457 25.0305C44.7457 26.2502 43.7572 27.2391 42.5379 27.2391C42.3534 27.2391 42.1742 27.2164 42.0029 27.1738C40.5404 26.8096 39.2241 25.3255 37.717 25.3255C36.2098 25.3255 34.8936 26.8096 33.4311 27.1738C33.2598 27.2164 33.0806 27.2391 32.896 27.2391C32.7113 27.2391 32.5319 27.2164 32.3604 27.1736C30.8983 26.8091 29.5825 25.3255 28.0757 25.3255C26.5689 25.3255 25.2531 26.8091 23.791 27.1736C23.6196 27.2164 23.4401 27.2391 23.2554 27.2391C23.0706 27.2391 22.8911 27.2163 22.7195 27.1735C21.2576 26.8089 19.942 25.3255 18.4353 25.3255C16.9287 25.3255 15.6131 26.8089 14.1512 27.1735C13.9796 27.2163 13.8001 27.2391 13.6153 27.2391C13.4306 27.2391 13.2512 27.2164 13.0798 27.1737C11.6176 26.8092 10.3017 25.3255 8.79479 25.3255Z" fill="#FF3E2D"/>
<path fill-rule="evenodd" clip-rule="evenodd" d="M9.13888 18.847C7.06579 18.847 5.09123 21.0552 3.01814 21.0552C1.63624 21.0552 0.515991 19.9345 0.515991 18.5521C0.515991 17.1697 1.63624 16.0491 3.01814 16.0491C5.09152 16.0491 7.0664 18.2581 9.13978 18.2581H10.4379C12.5111 18.2581 14.4859 16.0494 16.5592 16.0494C18.6324 16.0494 20.6072 18.2581 22.6805 18.2581H23.9795C26.0528 18.2581 28.0275 16.0494 30.1008 16.0494C30.1376 16.0494 30.1743 16.0502 30.2107 16.0518C30.2472 16.0502 30.2838 16.0494 30.3207 16.0494C32.3939 16.0494 34.3687 18.2581 36.442 18.2581H37.52C39.5933 18.2581 41.568 16.0494 43.6413 16.0494C45.0232 16.0494 46.1435 17.1701 46.1435 18.5525C46.1435 19.9349 45.0232 21.0555 43.6413 21.0555C41.5681 21.0555 39.5934 18.847 37.5202 18.847H36.4418C34.3686 18.847 32.3939 21.0555 30.3207 21.0555C30.2838 21.0555 30.2472 21.0547 30.2107 21.0532C30.1743 21.0547 30.1376 21.0555 30.1008 21.0555C28.0276 21.0555 26.0529 18.847 23.9797 18.847H22.6803C20.6071 18.847 18.6324 21.0555 16.5592 21.0555C14.486 21.0555 12.5113 18.847 10.4381 18.847H9.13888Z" fill="#FF3E2D"/>
<path fill-rule="evenodd" clip-rule="evenodd" d="M35.5905 9.13978C36.516 9.96602 37.5056 11.0429 38.7462 11.0429C39.9869 11.0429 40.9765 9.96602 41.902 9.13978C42.4224 8.67519 43.1088 8.39282 43.8612 8.39282C45.487 8.39282 46.8049 9.71125 46.8049 11.3376C46.8049 12.964 45.487 14.2824 43.8612 14.2824C43.1087 14.2824 42.422 13.9999 41.9016 13.5351C40.9763 12.7087 39.9868 11.6318 38.7462 11.6318C37.5056 11.6318 36.5162 12.7087 35.5909 13.5351C35.0704 13.9999 34.3838 14.2824 33.6312 14.2824C32.8784 14.2824 32.1916 13.9997 31.6711 13.5346C30.7462 12.7083 29.7571 11.6318 28.5169 11.6318C27.2767 11.6318 26.2875 12.7083 25.3627 13.5346C24.8422 13.9997 24.1553 14.2824 23.4025 14.2824C22.6498 14.2824 21.9631 13.9998 21.4427 13.5349C20.5175 12.7085 19.5282 11.6318 18.2878 11.6318C17.0474 11.6318 16.0581 12.7085 15.1329 13.5349C14.6125 13.9998 13.9258 14.2824 13.1731 14.2824C12.4204 14.2824 11.7336 13.9998 11.2132 13.5348C10.2881 12.7085 9.29881 11.6318 8.05842 11.6318C6.818 11.6318 5.82871 12.7085 4.90364 13.5349C4.38314 13.9999 3.69642 14.2825 2.9437 14.2825C1.31794 14.2825 0 12.964 0 11.3377C0 9.71132 1.31794 8.3929 2.9437 8.3929C3.69618 8.3929 4.38271 8.67534 4.90315 9.14003C5.82846 9.96623 6.81787 11.0429 8.05836 11.0429C9.29887 11.0429 10.2883 9.96619 11.2136 9.13997C11.734 8.67527 12.4206 8.39282 13.1731 8.39282C13.9256 8.39282 14.6121 8.67527 15.1325 9.13996C16.0579 9.96619 17.0473 11.0429 18.2878 11.0429C19.5283 11.0429 20.5177 9.96619 21.4431 9.13996C21.9635 8.67527 22.65 8.39282 23.4025 8.39282C24.1551 8.39282 24.8418 8.67537 25.3623 9.14021C26.2873 9.96641 27.2766 11.0429 28.5169 11.0429C29.7572 11.0429 30.7464 9.96641 31.6715 9.14021C32.192 8.67537 32.8786 8.39282 33.6312 8.39282C34.3836 8.39282 35.0701 8.67519 35.5905 9.13978Z" fill="#FF3E2D"/>
<path fill-rule="evenodd" clip-rule="evenodd" d="M42.5347 3.31288C42.5347 5.14254 41.052 6.62577 39.223 6.62577C38.1988 6.62577 37.2831 6.16061 36.6757 5.42996C35.9515 4.55891 35.0555 3.60759 33.9227 3.60759C32.7899 3.60759 31.8939 4.55891 31.1697 5.42996C30.5623 6.16061 29.6466 6.62577 28.6224 6.62577C27.5983 6.62577 26.6827 6.16071 26.0752 5.43017C25.3509 4.55907 24.4547 3.60759 23.3218 3.60759C22.1889 3.60759 21.2928 4.55907 20.5684 5.43017C19.9609 6.16071 19.0454 6.62577 18.0212 6.62577C16.6728 6.62577 15.5126 5.81954 14.996 4.66266C14.7434 4.09688 14.2473 3.60759 13.6276 3.60759C13.008 3.60759 12.5119 4.09689 12.2592 4.66269C11.7427 5.81958 10.5825 6.62582 9.234 6.62582C7.40502 6.62582 5.92233 5.14259 5.92233 3.31294C5.92233 1.48328 7.40502 5.40677e-05 9.234 5.40677e-05C10.5826 5.40677e-05 11.7429 0.80647 12.2594 1.96357C12.512 2.52935 13.008 3.01864 13.6276 3.01864C14.2472 3.01864 14.7433 2.52934 14.9958 1.96355C15.5123 0.806431 16.6726 0 18.0212 0C19.0456 0 19.9613 0.465227 20.5687 1.19598C21.2929 2.06715 22.1889 3.01864 23.3218 3.01864C24.4547 3.01864 25.3507 2.06715 26.0749 1.19598C26.6824 0.465227 27.5981 0 28.6224 0C29.6468 0 30.5626 0.465319 31.1701 1.1962C31.8941 2.06731 32.79 3.01864 33.9227 3.01864C35.0554 3.01864 35.9513 2.06731 36.6753 1.1962C37.2828 0.465319 38.1986 0 39.223 0C41.052 0 42.5347 1.48323 42.5347 3.31288Z" fill="#FF3E2D"/>
</svg>
