<svg width="45" height="36" viewBox="0 0 45 36" fill="none" xmlns="http://www.w3.org/2000/svg">
<path d="M35.7245 0.418694C34.8512 -0.257595 33.595 -0.0978601 32.9187 0.775471C32.2424 1.6488 32.4021 2.90502 33.2755 3.58131L35.7245 0.418694ZM40.3436 9.07904L38.5566 9.97717L40.3436 9.07904ZM42.4987 17.9147L44.4985 17.8917V17.8917L42.4987 17.9147ZM40.5477 26.7952L42.3547 27.6524L40.5477 26.7952ZM33.6091 32.4464C32.7511 33.142 32.6194 34.4014 33.315 35.2595C34.0106 36.1175 35.27 36.2492 36.1281 35.5536L33.6091 32.4464ZM29.4139 24.4508C28.5583 25.1493 28.4309 26.4092 29.1295 27.2649C29.8281 28.1205 31.088 28.2478 31.9436 27.5492L29.4139 24.4508ZM34.4994 17.9599L36.4993 17.9376V17.9376L34.4994 17.9599ZM31.7317 8.42428C30.8615 7.74403 29.6045 7.89804 28.9243 8.76829C28.244 9.63853 28.398 10.8955 29.2683 11.5757L31.7317 8.42428ZM11.7245 3.58131C12.5979 2.90502 12.7576 1.6488 12.0813 0.775471C11.405 -0.0978601 10.1488 -0.257595 9.27547 0.418694L11.7245 3.58131ZM4.65639 9.07904L6.44339 9.97717L4.65639 9.07904ZM2.50133 17.9147L0.501465 17.8917V17.8917L2.50133 17.9147ZM4.45233 26.7952L2.64532 27.6524H2.64532L4.45233 26.7952ZM8.87193 35.5536C9.72997 36.2492 10.9894 36.1175 11.685 35.2595C12.3806 34.4014 12.2489 33.142 11.3909 32.4464L8.87193 35.5536ZM13.0564 27.5492C13.912 28.2478 15.1719 28.1205 15.8705 27.2649C16.5691 26.4092 16.4417 25.1493 15.5861 24.4508L13.0564 27.5492ZM10.5006 17.9599L8.50075 17.9376V17.9376L10.5006 17.9599ZM15.7317 11.5757C16.602 10.8955 16.756 9.63853 16.0757 8.76829C15.3955 7.89804 14.1385 7.74403 13.2683 8.42428L15.7317 11.5757ZM20.5 34C20.5 35.1046 21.3954 36 22.5 36C23.6046 36 24.5 35.1046 24.5 34H20.5ZM28.5 18C28.5 14.6863 25.8137 12 22.5 12V16C23.6046 16 24.5 16.8954 24.5 18H28.5ZM22.5 12C19.1863 12 16.5 14.6863 16.5 18H20.5C20.5 16.8954 21.3954 16 22.5 16V12ZM16.5 18C16.5 21.3137 19.1863 24 22.5 24V20C21.3954 20 20.5 19.1046 20.5 18H16.5ZM22.5 24C25.8137 24 28.5 21.3137 28.5 18H24.5C24.5 19.1046 23.6046 20 22.5 20V24ZM33.2755 3.58131C35.5059 5.30852 37.3087 7.49431 38.5566 9.97717L42.1306 8.1809C40.6113 5.15803 38.4217 2.50732 35.7245 0.418694L33.2755 3.58131ZM38.5566 9.97717C39.8044 12.4598 40.467 15.179 40.4988 17.9377L44.4985 17.8917C44.4597 14.5214 43.65 11.204 42.1306 8.1809L38.5566 9.97717ZM40.4988 17.9377C40.5306 20.6964 39.9307 23.4292 38.7407 25.938L42.3547 27.6524C43.8042 24.5965 44.5374 21.2619 44.4985 17.8917L40.4988 17.9377ZM38.7407 25.938C37.5505 28.4471 35.7988 30.6713 33.6091 32.4464L36.1281 35.5536C38.7769 33.4063 40.9052 30.708 42.3547 27.6524L38.7407 25.938ZM31.9436 27.5492C33.3818 26.3751 34.5396 24.9071 35.3293 23.2453L31.7164 21.5285C31.1857 22.6454 30.4017 23.6443 29.4139 24.4508L31.9436 27.5492ZM35.3293 23.2453C36.1191 21.5832 36.5197 19.7709 36.4993 17.9376L32.4995 17.9823C32.5131 19.2017 32.247 20.412 31.7164 21.5285L35.3293 23.2453ZM36.4993 17.9376C36.4788 16.1044 36.0378 14.3011 35.2113 12.6561L31.6371 14.4519C32.1928 15.5579 32.4859 16.7628 32.4995 17.9823L36.4993 17.9376ZM35.2113 12.6561C34.385 11.0115 33.1951 9.5682 31.7317 8.42428L29.2683 11.5757C30.2745 12.3623 31.0812 13.3455 31.6371 14.4519L35.2113 12.6561ZM9.27547 0.418694C6.57831 2.50732 4.38868 5.15803 2.8694 8.1809L6.44339 9.97717C7.69127 7.49431 9.49408 5.30852 11.7245 3.58131L9.27547 0.418694ZM2.8694 8.1809C1.35001 11.204 0.540285 14.5214 0.501465 17.8917L4.5012 17.9377C4.53298 15.179 5.19562 12.4598 6.44339 9.97717L2.8694 8.1809ZM0.501465 17.8917C0.462645 21.2619 1.19575 24.5965 2.64532 27.6524L6.25934 25.938C5.06926 23.4292 4.46942 20.6964 4.5012 17.9377L0.501465 17.8917ZM2.64532 27.6524C4.09479 30.708 6.22313 33.4063 8.87193 35.5536L11.3909 32.4464C9.2012 30.6713 7.44952 28.4471 6.25934 25.938L2.64532 27.6524ZM15.5861 24.4508C14.5983 23.6443 13.8143 22.6454 13.2836 21.5285L9.67074 23.2453C10.4604 24.9071 11.6182 26.3751 13.0564 27.5492L15.5861 24.4508ZM13.2836 21.5285C12.753 20.412 12.4869 19.2017 12.5005 17.9823L8.50075 17.9376C8.48027 19.7709 8.88088 21.5832 9.67074 23.2453L13.2836 21.5285ZM12.5005 17.9823C12.5141 16.7628 12.8072 15.5579 13.3629 14.4519L9.78872 12.6561C8.96222 14.3011 8.52123 16.1044 8.50075 17.9376L12.5005 17.9823ZM13.3629 14.4519C13.9188 13.3455 14.7255 12.3623 15.7317 11.5757L13.2683 8.42428C11.8049 9.5682 10.615 11.0115 9.78872 12.6561L13.3629 14.4519ZM20.5 22V34H24.5V22H20.5Z" fill="#FF3E2D"/>
<path d="M35.7245 0.418694C34.8512 -0.257595 33.595 -0.0978601 32.9187 0.775471C32.2424 1.6488 32.4021 2.90502 33.2755 3.58131L35.7245 0.418694ZM40.3436 9.07904L38.5566 9.97717L40.3436 9.07904ZM42.4987 17.9147L44.4985 17.8917V17.8917L42.4987 17.9147ZM40.5477 26.7952L42.3547 27.6524L40.5477 26.7952ZM33.6091 32.4464C32.7511 33.142 32.6194 34.4014 33.315 35.2595C34.0106 36.1175 35.27 36.2492 36.1281 35.5536L33.6091 32.4464ZM29.4139 24.4508C28.5583 25.1493 28.4309 26.4092 29.1295 27.2649C29.8281 28.1205 31.088 28.2478 31.9436 27.5492L29.4139 24.4508ZM34.4994 17.9599L36.4993 17.9376V17.9376L34.4994 17.9599ZM31.7317 8.42428C30.8615 7.74403 29.6045 7.89804 28.9243 8.76829C28.244 9.63853 28.398 10.8955 29.2683 11.5757L31.7317 8.42428ZM11.7245 3.58131C12.5979 2.90502 12.7576 1.6488 12.0813 0.775471C11.405 -0.0978601 10.1488 -0.257595 9.27547 0.418694L11.7245 3.58131ZM4.65639 9.07904L6.44339 9.97717L4.65639 9.07904ZM2.50133 17.9147L0.501465 17.8917V17.8917L2.50133 17.9147ZM4.45233 26.7952L2.64532 27.6524H2.64532L4.45233 26.7952ZM8.87193 35.5536C9.72997 36.2492 10.9894 36.1175 11.685 35.2595C12.3806 34.4014 12.2489 33.142 11.3909 32.4464L8.87193 35.5536ZM13.0564 27.5492C13.912 28.2478 15.1719 28.1205 15.8705 27.2649C16.5691 26.4092 16.4417 25.1493 15.5861 24.4508L13.0564 27.5492ZM10.5006 17.9599L8.50075 17.9376V17.9376L10.5006 17.9599ZM15.7317 11.5757C16.602 10.8955 16.756 9.63853 16.0757 8.76829C15.3955 7.89804 14.1385 7.74403 13.2683 8.42428L15.7317 11.5757ZM20.5 34C20.5 35.1046 21.3954 36 22.5 36C23.6046 36 24.5 35.1046 24.5 34H20.5ZM28.5 18C28.5 14.6863 25.8137 12 22.5 12V16C23.6046 16 24.5 16.8954 24.5 18H28.5ZM22.5 12C19.1863 12 16.5 14.6863 16.5 18H20.5C20.5 16.8954 21.3954 16 22.5 16V12ZM16.5 18C16.5 21.3137 19.1863 24 22.5 24V20C21.3954 20 20.5 19.1046 20.5 18H16.5ZM22.5 24C25.8137 24 28.5 21.3137 28.5 18H24.5C24.5 19.1046 23.6046 20 22.5 20V24ZM33.2755 3.58131C35.5059 5.30852 37.3087 7.49431 38.5566 9.97717L42.1306 8.1809C40.6113 5.15803 38.4217 2.50732 35.7245 0.418694L33.2755 3.58131ZM38.5566 9.97717C39.8044 12.4598 40.467 15.179 40.4988 17.9377L44.4985 17.8917C44.4597 14.5214 43.65 11.204 42.1306 8.1809L38.5566 9.97717ZM40.4988 17.9377C40.5306 20.6964 39.9307 23.4292 38.7407 25.938L42.3547 27.6524C43.8042 24.5965 44.5374 21.2619 44.4985 17.8917L40.4988 17.9377ZM38.7407 25.938C37.5505 28.4471 35.7988 30.6713 33.6091 32.4464L36.1281 35.5536C38.7769 33.4063 40.9052 30.708 42.3547 27.6524L38.7407 25.938ZM31.9436 27.5492C33.3818 26.3751 34.5396 24.9071 35.3293 23.2453L31.7164 21.5285C31.1857 22.6454 30.4017 23.6443 29.4139 24.4508L31.9436 27.5492ZM35.3293 23.2453C36.1191 21.5832 36.5197 19.7709 36.4993 17.9376L32.4995 17.9823C32.5131 19.2017 32.247 20.412 31.7164 21.5285L35.3293 23.2453ZM36.4993 17.9376C36.4788 16.1044 36.0378 14.3011 35.2113 12.6561L31.6371 14.4519C32.1928 15.5579 32.4859 16.7628 32.4995 17.9823L36.4993 17.9376ZM35.2113 12.6561C34.385 11.0115 33.1951 9.5682 31.7317 8.42428L29.2683 11.5757C30.2745 12.3623 31.0812 13.3455 31.6371 14.4519L35.2113 12.6561ZM9.27547 0.418694C6.57831 2.50732 4.38868 5.15803 2.8694 8.1809L6.44339 9.97717C7.69127 7.49431 9.49408 5.30852 11.7245 3.58131L9.27547 0.418694ZM2.8694 8.1809C1.35001 11.204 0.540285 14.5214 0.501465 17.8917L4.5012 17.9377C4.53298 15.179 5.19562 12.4598 6.44339 9.97717L2.8694 8.1809ZM0.501465 17.8917C0.462645 21.2619 1.19575 24.5965 2.64532 27.6524L6.25934 25.938C5.06926 23.4292 4.46942 20.6964 4.5012 17.9377L0.501465 17.8917ZM2.64532 27.6524C4.09479 30.708 6.22313 33.4063 8.87193 35.5536L11.3909 32.4464C9.2012 30.6713 7.44952 28.4471 6.25934 25.938L2.64532 27.6524ZM15.5861 24.4508C14.5983 23.6443 13.8143 22.6454 13.2836 21.5285L9.67074 23.2453C10.4604 24.9071 11.6182 26.3751 13.0564 27.5492L15.5861 24.4508ZM13.2836 21.5285C12.753 20.412 12.4869 19.2017 12.5005 17.9823L8.50075 17.9376C8.48027 19.7709 8.88088 21.5832 9.67074 23.2453L13.2836 21.5285ZM12.5005 17.9823C12.5141 16.7628 12.8072 15.5579 13.3629 14.4519L9.78872 12.6561C8.96222 14.3011 8.52123 16.1044 8.50075 17.9376L12.5005 17.9823ZM13.3629 14.4519C13.9188 13.3455 14.7255 12.3623 15.7317 11.5757L13.2683 8.42428C11.8049 9.5682 10.615 11.0115 9.78872 12.6561L13.3629 14.4519ZM20.5 22V34H24.5V22H20.5Z" fill="black" fill-opacity="0.2"/>
</svg>
