<svg width="45" height="32" viewBox="0 0 45 32" fill="none" xmlns="http://www.w3.org/2000/svg">
<path d="M25.5 12.8586C26.582 11.7978 27.9041 10.9811 29.3771 10.4973M29.3771 10.4973C30.3597 10.1746 31.4095 10 32.5 10C38.0228 10 42.5 14.4772 42.5 20C42.5 25.5228 38.0228 30 32.5 30H16.5C8.76801 30 2.5 23.732 2.5 16C2.5 8.26801 8.76801 2 16.5 2C22.2785 2 27.2393 5.50084 29.3771 10.4973Z" stroke="#FF3E2D" stroke-width="4" stroke-linecap="round" stroke-linejoin="round"/>
<path d="M25.5 12.8586C26.582 11.7978 27.9041 10.9811 29.3771 10.4973M29.3771 10.4973C30.3597 10.1746 31.4095 10 32.5 10C38.0228 10 42.5 14.4772 42.5 20C42.5 25.5228 38.0228 30 32.5 30H16.5C8.76801 30 2.5 23.732 2.5 16C2.5 8.26801 8.76801 2 16.5 2C22.2785 2 27.2393 5.50084 29.3771 10.4973Z" stroke="black" stroke-opacity="0.2" stroke-width="4" stroke-linecap="round" stroke-linejoin="round"/>
</svg>
