<svg width="44" height="32" viewBox="0 0 44 32" fill="none" xmlns="http://www.w3.org/2000/svg">
<path d="M29.1834 26.0665H38C40.2091 26.0665 42 24.0906 42 21.6532V9.14087C42 7.46923 41.144 5.94107 39.7889 5.19349L35.6892 2.93185C34.5783 2.31904 33.3534 2 32.1115 2H27.845C25.4147 2 23.1162 3.21886 21.598 5.31267L21.5478 5.38192M21.5478 5.38192L17.669 10.7314C16.7189 12.0418 16.8137 13.931 17.8892 15.1177C19.055 16.4039 20.945 16.4039 22.1108 15.1177L24.9412 11.9948L29.5229 21.2626C30.7764 23.7982 29.5211 26.9569 26.9815 27.6574L19.9218 29.6047C17.3775 30.3065 14.6949 30.0693 12.2843 28.9295L4.42432 25.2128C2.95359 24.5174 2 22.9218 2 21.1564V9.14087C2 7.46923 2.85601 5.94107 4.21114 5.19349L8.31083 2.93185C9.42168 2.31904 10.6466 2 11.8885 2H15.2509C17.7328 2 20.0467 3.26806 21.5478 5.38192Z" stroke="#FF3E2D" stroke-width="4" stroke-linecap="round" stroke-linejoin="round"/>
</svg>
