<svg width="42" height="40" viewBox="0 0 42 40" fill="none" xmlns="http://www.w3.org/2000/svg">
<path d="M38.4878 27.4411L36.7822 26.3967V26.3967L38.4878 27.4411ZM36.5787 30.5588L38.2843 31.6033V31.6033L36.5787 30.5588ZM3.51217 12.5588L1.80654 11.5144H1.80654L3.51217 12.5588ZM5.42126 9.44114L7.12689 10.4856L5.42126 9.44114ZM10.637 8.12345L11.5932 6.36685L11.5932 6.36685L10.637 8.12345ZM4.90972 17.4765L3.9535 19.2331H3.95351L4.90972 17.4765ZM31.363 31.8765L30.4067 33.6331L30.4067 33.6331L31.363 31.8765ZM37.0902 22.5234L36.134 24.2801L37.0902 22.5234ZM5.42126 30.5589L3.71563 31.6033H3.71563L5.42126 30.5589ZM3.51216 27.4412L5.21779 26.3967H5.21779L3.51216 27.4412ZM36.5787 9.44117L38.2843 8.39674V8.39674L36.5787 9.44117ZM38.4878 12.5589L36.7822 13.6033V13.6033L38.4878 12.5589ZM37.0902 17.4766L38.0465 19.2332L37.0902 17.4766ZM31.363 8.12348L32.3192 9.88008L32.3192 9.88008L31.363 8.12348ZM4.90972 22.5235L5.86594 24.2801H5.86594L4.90972 22.5235ZM10.637 31.8765L9.68081 30.1199L9.6808 30.1199L10.637 31.8765ZM31.16 8.23395L30.2038 6.47735L30.2038 6.47735L31.16 8.23395ZM10.84 8.23394L9.88377 9.99054L9.88377 9.99054L10.84 8.23394ZM31.16 31.766L32.1162 30.0094L32.1162 30.0094L31.16 31.766ZM10.84 31.7661L11.7962 33.5227L11.7962 33.5227L10.84 31.7661ZM19.0909 4H22.9091V0H19.0909V4ZM22.9091 36H19.0909V40H22.9091V36ZM19.0909 36C17.9742 36 17.2727 35.1744 17.2727 34.4H13.2727C13.2727 37.602 15.9901 40 19.0909 40V36ZM24.7273 34.4C24.7273 35.1744 24.0258 36 22.9091 36V40C26.0099 40 28.7273 37.602 28.7273 34.4H24.7273ZM22.9091 4C24.0258 4 24.7273 4.82559 24.7273 5.6H28.7273C28.7273 2.39796 26.0099 0 22.9091 0V4ZM19.0909 0C15.9901 0 13.2727 2.39796 13.2727 5.6H17.2727C17.2727 4.82559 17.9742 4 19.0909 4V0ZM36.7822 26.3967L34.8731 29.5144L38.2843 31.6033L40.1934 28.4856L36.7822 26.3967ZM5.21779 13.6033L7.12689 10.4856L3.71564 8.39671L1.80654 11.5144L5.21779 13.6033ZM7.12689 10.4856C7.59847 9.71544 8.74451 9.37037 9.6808 9.88005L11.5932 6.36685C8.8771 4.8883 5.35278 5.72313 3.71564 8.39671L7.12689 10.4856ZM5.86594 15.7199C4.99204 15.2442 4.79217 14.2983 5.21779 13.6033L1.80654 11.5144C0.123427 14.263 1.17497 17.7206 3.9535 19.2331L5.86594 15.7199ZM34.8731 29.5144C34.4015 30.2845 33.2555 30.6296 32.3192 30.1199L30.4067 33.6331C33.1229 35.1117 36.6472 34.2768 38.2843 31.6033L34.8731 29.5144ZM40.1934 28.4856C41.8765 25.7369 40.825 22.2794 38.0465 20.7668L36.134 24.2801C37.0079 24.7558 37.2078 25.7016 36.7822 26.3967L40.1934 28.4856ZM7.12689 29.5144L5.21779 26.3967L1.80654 28.4856L3.71563 31.6033L7.12689 29.5144ZM34.8731 10.4856L36.7822 13.6033L40.1934 11.5144L38.2843 8.39674L34.8731 10.4856ZM36.7822 13.6033C37.2078 14.2984 37.0079 15.2442 36.134 15.7199L38.0465 19.2332C40.825 17.7206 41.8765 14.2631 40.1934 11.5144L36.7822 13.6033ZM32.3192 9.88008C33.2555 9.3704 34.4015 9.71547 34.8731 10.4856L38.2843 8.39674C36.6472 5.72316 33.1229 4.88833 30.4067 6.36688L32.3192 9.88008ZM5.21779 26.3967C4.79217 25.7017 4.99204 24.7558 5.86594 24.2801L3.9535 20.7669C1.17497 22.2794 0.123425 25.737 1.80654 28.4856L5.21779 26.3967ZM3.71563 31.6033C5.35278 34.2769 8.8771 35.1117 11.5932 33.6332L9.6808 30.1199C8.7445 30.6296 7.59847 30.2846 7.12689 29.5144L3.71563 31.6033ZM32.1162 9.99056L32.3192 9.88008L30.4067 6.36687L30.2038 6.47735L32.1162 9.99056ZM9.6808 9.88005L9.88377 9.99054L11.7962 6.47734L11.5932 6.36685L9.6808 9.88005ZM32.3192 30.1199L32.1162 30.0094L30.2038 33.5226L30.4067 33.6331L32.3192 30.1199ZM9.88378 30.0095L9.68081 30.1199L11.5932 33.6332L11.7962 33.5227L9.88378 30.0095ZM3.95351 19.2331C4.56108 19.5639 4.56108 20.4361 3.9535 20.7669L5.86594 24.2801C9.25693 22.4342 9.25694 17.5658 5.86594 15.7199L3.95351 19.2331ZM11.7962 33.5227C12.4618 33.1603 13.2727 33.6421 13.2727 34.4H17.2727C17.2727 30.6074 13.2148 28.1962 9.88377 30.0095L11.7962 33.5227ZM28.7273 34.4C28.7273 33.6421 29.5382 33.1603 30.2038 33.5226L32.1162 30.0094C28.7852 28.1962 24.7273 30.6074 24.7273 34.4H28.7273ZM38.0465 20.7668C37.4389 20.4361 37.4389 19.5639 38.0465 19.2332L36.134 15.7199C32.7431 17.5658 32.7431 22.4341 36.134 24.2801L38.0465 20.7668ZM9.88377 9.99054C13.2148 11.8038 17.2727 9.3926 17.2727 5.6H13.2727C13.2727 6.35785 12.4618 6.83967 11.7962 6.47734L9.88377 9.99054ZM30.2038 6.47735C29.5382 6.83969 28.7273 6.35787 28.7273 5.6H24.7273C24.7273 9.3926 28.7852 11.8038 32.1162 9.99055L30.2038 6.47735ZM25 20C25 22.2091 23.2091 24 21 24V28C25.4183 28 29 24.4183 29 20H25ZM21 24C18.7909 24 17 22.2091 17 20H13C13 24.4183 16.5817 28 21 28V24ZM17 20C17 17.7909 18.7909 16 21 16V12C16.5817 12 13 15.5817 13 20H17ZM21 16C23.2091 16 25 17.7909 25 20H29C29 15.5817 25.4183 12 21 12V16Z" fill="#FF3E2D"/>
</svg>
