<svg width="45" height="40" viewBox="0 0 45 40" fill="none" xmlns="http://www.w3.org/2000/svg">
<path d="M30.9852 13.5147C28.8136 11.3431 25.8136 10 22.4999 10C19.1862 10 16.1862 11.3431 14.0146 13.5147M18.2573 17.7574C19.3431 16.6716 20.8431 16 22.4999 16C24.1568 16 25.6568 16.6716 26.7426 17.7574M12.5 38C20.035 35.3507 24.3586 35.3161 32.5 38M22.5 36V30M2.5 10L2.5 22C2.5 26.4183 6.08172 30 10.5 30L34.5 30C38.9183 30 42.5 26.4183 42.5 22V10C42.5 5.58172 38.9183 2 34.5 2L10.5 2C6.08172 2 2.5 5.58172 2.5 10Z" stroke="#FF3E2D" stroke-width="4" stroke-linecap="round" stroke-linejoin="round"/>
<path d="M30.9852 13.5147C28.8136 11.3431 25.8136 10 22.4999 10C19.1862 10 16.1862 11.3431 14.0146 13.5147M18.2573 17.7574C19.3431 16.6716 20.8431 16 22.4999 16C24.1568 16 25.6568 16.6716 26.7426 17.7574M12.5 38C20.035 35.3507 24.3586 35.3161 32.5 38M22.5 36V30M2.5 10L2.5 22C2.5 26.4183 6.08172 30 10.5 30L34.5 30C38.9183 30 42.5 26.4183 42.5 22V10C42.5 5.58172 38.9183 2 34.5 2L10.5 2C6.08172 2 2.5 5.58172 2.5 10Z" stroke="black" stroke-opacity="0.2" stroke-width="4" stroke-linecap="round" stroke-linejoin="round"/>
</svg>
