<svg width="32" height="32" viewBox="0 0 32 32" fill="none" xmlns="http://www.w3.org/2000/svg">
<rect width="32" height="32" rx="4" fill="#FF3E2D"/>
<rect width="32" height="32" rx="4" fill="black" fill-opacity="0.2"/>
<path d="M14 20L14 22C14 23.1046 14.8954 24 16 24L23 24C24.1046 24 25 23.1046 25 22L25 10C25 8.89543 24.1046 8 23 8L16 8C14.8954 8 14 8.89543 14 10L14 12" stroke="white" stroke-width="1.6" stroke-linecap="round" stroke-linejoin="round"/>
<path d="M8 15.2C7.55817 15.2 7.2 15.5582 7.2 16C7.2 16.4418 7.55817 16.8 8 16.8L8 15.2ZM21 16L21.5657 16.5657C21.7945 16.3369 21.8629 15.9928 21.7391 15.6939C21.6153 15.3949 21.3236 15.2 21 15.2L21 16ZM17.4343 18.4343C17.1219 18.7467 17.1219 19.2533 17.4343 19.5657C17.7467 19.8781 18.2533 19.8781 18.5657 19.5657L17.4343 18.4343ZM18.5657 12.4343C18.2533 12.1219 17.7467 12.1219 17.4343 12.4343C17.1219 12.7467 17.1219 13.2533 17.4343 13.5657L18.5657 12.4343ZM20.4343 16.5657C20.7467 16.8781 21.2533 16.8781 21.5657 16.5657C21.8781 16.2533 21.8781 15.7467 21.5657 15.4343L20.4343 16.5657ZM8 16.8L21 16.8L21 15.2L8 15.2L8 16.8ZM20.4343 15.4343L17.4343 18.4343L18.5657 19.5657L21.5657 16.5657L20.4343 15.4343ZM17.4343 13.5657L20.4343 16.5657L21.5657 15.4343L18.5657 12.4343L17.4343 13.5657Z" fill="white"/>
</svg>
